<svg viewBox="0 0 16 16" xmlns="http://www.w3.org/2000/svg" xmlns:xlink="http://www.w3.org/1999/xlink" width="16.000000" height="16.000000" fill="none">
	<rect id="star-half-alt" width="16.000000" height="16.000000" x="0.000000" y="0.000000" fill="rgb(0,0,0)" fill-opacity="0" />
	<path id="Vector" d="M15.1805 5.47786L10.8113 4.84174L8.85876 0.889796C8.68323 0.536662 8.34085 0.358154 7.99846 0.358154C7.65816 0.358154 7.31816 0.534274 7.14204 0.889796L5.1889 4.84144L0.819353 5.47696C0.0357707 5.59039 -0.278259 6.55427 0.2898 7.10651L3.4507 10.1811L2.70264 14.5238C2.59637 15.1441 3.09159 15.6417 3.64622 15.6417C3.79338 15.6417 3.94473 15.6068 4.0901 15.5298L7.99905 13.4796L11.9077 15.5304C12.0528 15.6065 12.2038 15.6411 12.3504 15.6411C12.9056 15.6411 13.4017 15.1453 13.2955 14.5247L12.5483 10.1817L15.7098 7.10771C16.2782 6.55547 15.9641 5.59129 15.1805 5.47786ZM11.5465 9.15547L11.0056 9.68144L11.1334 10.4241L11.7161 13.8107L8.66741 12.211L7.99935 11.8605L8.00025 2.39218L9.52353 5.47547L9.85726 6.15099L10.6038 6.25965L14.0137 6.75606L11.5465 9.15547Z" fill="rgb(255,178,56)" fill-rule="nonzero" />
</svg>
