<svg viewBox="0 0 255 98" xmlns="http://www.w3.org/2000/svg" xmlns:xlink="http://www.w3.org/1999/xlink" width="255.000000" height="98.000000" fill="none" customFrame="#000000">
	<rect id="Logo2" width="255.000000" height="98.000000" x="0.000000" y="0.000000" />
	<rect id="Rectangle 12" width="255.000000" height="98.000000" x="0.000000" y="0.000000" fill="rgb(255,255,255)" fill-opacity="0" />
	<path id="Vector" d="M91.3991 41.7442L82.5122 32.7122C82.5067 32.7066 82.5008 32.7015 82.4953 32.6959C82.4898 32.6903 82.4833 32.6828 82.477 32.6763C79.8836 30.0409 76.4648 28.4105 72.8129 28.0677C69.1611 27.7249 65.5065 28.6912 62.4819 30.7992C59.4573 28.6912 55.8027 27.7249 52.1509 28.0677C48.499 28.4105 45.0802 30.0409 42.4868 32.6763L33.6 41.7081C30.8312 44.5229 29.1966 48.2872 29.0166 52.2631C28.8366 56.239 30.1242 60.1401 32.627 63.2014C35.1298 66.2625 38.6674 68.2635 42.5462 68.8117C46.4251 69.3599 50.3656 68.4161 53.5953 66.1651C56.2103 67.9876 59.3067 68.9634 62.4775 68.9645C65.6484 68.9654 68.7452 67.9913 71.3613 66.1702C74.5872 68.4352 78.5299 69.3921 82.4146 68.8533C86.2994 68.3143 89.8455 66.3188 92.3564 63.2581C94.8671 60.1974 96.161 56.2931 95.984 52.3125C95.8068 48.3316 94.1715 44.562 91.3991 41.7442ZM48.7696 61.6422C46.7634 62.6161 44.4831 62.8376 42.3317 62.2679C40.1802 61.6984 38.2962 60.374 37.0125 58.5291C35.7289 56.6842 35.1282 54.4377 35.3168 52.1862C35.5053 49.9348 36.4708 47.8235 38.0428 46.2257L46.9294 37.1936C48.3088 35.7936 50.0807 34.8619 52.002 34.5264C53.9233 34.1909 55.8997 34.4681 57.6596 35.32L51.3735 41.7081C48.9628 44.1455 47.4022 47.3169 46.9294 50.7393C46.8253 51.4876 46.7728 52.2423 46.7723 52.998C46.766 55.9858 47.5904 58.9144 49.1504 61.4469C49.0245 61.5151 48.8976 61.5799 48.7696 61.6415L48.7696 61.6422ZM69.1469 59.7726C67.3773 61.5593 64.9829 62.56 62.4884 62.556C59.994 62.5517 57.603 61.5426 55.8391 59.7501C54.0753 57.9573 53.0825 55.5273 53.0783 52.992C53.0742 50.4568 54.0589 48.0234 55.8169 46.2248L62.4819 39.4509L69.1469 46.2248C70.9115 48.0227 71.9024 50.4585 71.9024 52.998C71.9024 55.5373 70.9115 57.9732 69.1469 59.7711L69.1469 59.7726ZM86.9556 59.8084C85.5697 61.2133 83.7885 62.1455 81.8584 62.4763C79.9282 62.8071 77.9446 62.5199 76.1822 61.6544C76.0555 61.5924 75.93 61.5274 75.806 61.4593C77.3708 58.9241 78.1978 55.9907 78.1915 52.998C78.1909 52.2423 78.1385 51.4876 78.0344 50.7393C77.5617 47.3169 76.001 44.1455 73.5903 41.7081L67.3426 35.3586L67.3074 35.3228C69.0665 34.4713 71.0418 34.1939 72.9622 34.5286C74.8827 34.8633 76.654 35.7937 78.0335 37.1921C78.0399 37.1986 78.0458 37.2054 78.0519 37.2119C78.058 37.2183 78.0633 37.2226 78.0688 37.2282L86.914 46.2179L86.9563 46.2609C88.7238 48.0575 89.7169 50.4942 89.7169 53.0348C89.7169 55.5753 88.7238 58.012 86.9563 59.8087L86.9556 59.8084Z" fill="rgb(109,125,125)" fill-rule="nonzero" />
	<path id="Allianzy" d="M106.217 60.6799Q105.678 60.6799 105.678 60.2034Q105.678 60.0081 105.772 59.7815L114.217 39.7502Q114.412 39.2737 114.631 39.1018Q114.858 38.9221 115.28 38.9221L117.037 38.9221Q117.483 38.9221 117.686 39.1018Q117.897 39.2737 118.092 39.7502L126.537 59.7815Q126.639 60.0081 126.639 60.2034Q126.639 60.6799 126.092 60.6799L123.311 60.6799Q122.889 60.6799 122.709 60.5706Q122.537 60.4534 122.381 60.1018L120.553 55.6252L111.725 55.6252L109.936 60.1018Q109.772 60.4534 109.592 60.5706Q109.42 60.6799 109.006 60.6799L106.217 60.6799ZM119.53 52.6487L116.139 44.2659L112.748 52.6487L119.53 52.6487ZM130.954 60.6799Q130.314 60.6799 130.04 60.3909Q129.775 60.1018 129.775 59.5315L129.775 40.1018Q129.775 39.4924 130.04 39.2112Q130.314 38.9221 130.954 38.9221L132.65 38.9221Q133.29 38.9221 133.579 39.2112Q133.868 39.4924 133.868 40.1018L133.868 59.5315Q133.868 60.1018 133.595 60.3909Q133.322 60.6799 132.65 60.6799L130.954 60.6799ZM138.826 60.6799Q138.186 60.6799 137.912 60.3909Q137.647 60.1018 137.647 59.5315L137.647 40.1018Q137.647 39.4924 137.912 39.2112Q138.186 38.9221 138.826 38.9221L140.522 38.9221Q141.162 38.9221 141.451 39.2112Q141.74 39.4924 141.74 40.1018L141.74 59.5315Q141.74 60.1018 141.467 60.3909Q141.193 60.6799 140.522 60.6799L138.826 60.6799ZM147.112 42.6643Q146.347 42.6643 145.933 42.219Q145.519 41.7659 145.519 41.1252L145.519 40.4534Q145.519 39.8127 145.933 39.3674Q146.347 38.9221 147.112 38.9221L148.495 38.9221Q149.261 38.9221 149.69 39.3674Q150.12 39.8127 150.12 40.4534L150.12 41.1252Q150.12 41.7659 149.69 42.219Q149.261 42.6643 148.495 42.6643L147.112 42.6643ZM146.987 60.6799Q146.347 60.6799 146.058 60.3909Q145.769 60.1018 145.769 59.5315L145.769 46.5002Q145.769 45.8987 146.058 45.6096Q146.347 45.3206 146.987 45.3206L148.651 45.3206Q149.292 45.3206 149.581 45.6096Q149.87 45.8987 149.87 46.5002L149.87 59.5315Q149.87 60.1018 149.597 60.3909Q149.323 60.6799 148.651 60.6799L146.987 60.6799ZM160.106 61.1565Q156.973 61.1565 155.114 59.2581Q153.262 57.3518 153.262 53.8987Q153.262 51.2112 154.442 49.1487Q155.629 47.0784 157.817 45.9612Q160.012 44.8362 162.926 44.8362Q166.989 44.8362 169.801 46.7581L169.801 59.8127Q169.801 60.2971 169.59 60.4924Q169.387 60.6799 168.879 60.6799L167.114 60.6799Q166.762 60.6799 166.582 60.5393Q166.41 60.3909 166.348 60.0706L166.09 58.8206Q165.098 60.0393 163.645 60.6018Q162.192 61.1565 160.106 61.1565ZM161.645 58.2502Q163.34 58.2502 164.637 57.2581Q165.934 56.2659 165.934 54.6331L165.934 48.3909Q165.262 48.0393 164.574 47.8987Q163.887 47.7502 162.895 47.7502Q160.364 47.7502 158.824 49.3518Q157.293 50.9534 157.293 53.7659Q157.293 56.0706 158.364 57.1643Q159.434 58.2502 161.645 58.2502ZM174.794 60.6799Q174.153 60.6799 173.864 60.3909Q173.583 60.1018 173.583 59.5315L173.583 46.1877Q173.583 45.7034 173.739 45.5159Q173.903 45.3206 174.411 45.3206L176.239 45.3206Q176.942 45.3206 176.973 45.9612L177.036 47.2424Q179.215 44.8362 183.278 44.8362Q185.872 44.8362 187.45 46.2346Q189.036 47.6252 189.036 50.4065L189.036 59.5315Q189.036 60.1018 188.762 60.3909Q188.489 60.6799 187.848 60.6799L186.153 60.6799Q185.512 60.6799 185.223 60.3909Q184.942 60.1018 184.942 59.5315L184.942 50.6643Q184.942 49.094 184.215 48.4377Q183.497 47.7815 181.903 47.7815Q180.208 47.7815 178.942 48.6956Q177.676 49.6096 177.676 51.0471L177.676 59.5315Q177.676 60.1018 177.403 60.3909Q177.13 60.6799 176.458 60.6799L174.794 60.6799ZM193.006 60.6799Q192.459 60.6799 192.248 60.4768Q192.045 60.2659 192.045 59.7502Q192.045 58.8909 192.233 58.4768Q192.428 58.0549 193.131 57.3206L201.647 48.4534L193.545 48.4534Q192.905 48.4534 192.616 48.2034Q192.334 47.9456 192.334 47.3362L192.334 46.4065Q192.334 45.7971 192.616 45.5627Q192.905 45.3206 193.545 45.3206L205.866 45.3206Q206.381 45.3206 206.569 45.5315Q206.764 45.7346 206.764 46.2502Q206.764 47.1096 206.553 47.5784Q206.35 48.0393 205.709 48.7112L197.451 57.5784L205.866 57.5784Q206.506 57.5784 206.795 57.8518Q207.084 58.1174 207.084 58.7268L207.084 59.594Q207.084 60.1643 206.795 60.4221Q206.506 60.6799 205.866 60.6799L193.006 60.6799ZM213.134 65.6721Q211.915 65.6721 210.891 65.3206Q209.868 64.969 209.134 64.3596Q208.876 64.1331 208.876 63.9456Q208.876 63.7502 209.001 63.594L209.899 62.0549Q210.094 61.7346 210.282 61.7346Q210.446 61.7346 210.665 61.9299Q211.18 62.3127 211.704 62.5002Q212.235 62.6956 212.969 62.6956Q213.93 62.6956 214.469 62.0706Q215.016 61.4456 215.594 59.9768L209.134 46.219Q209.001 45.8987 209.001 45.7659Q209.001 45.3206 209.516 45.3206L212.235 45.3206Q212.649 45.3206 212.844 45.4534Q213.04 45.5784 213.196 45.9299L217.485 55.9768L221.774 45.9299Q221.93 45.5784 222.118 45.4534Q222.313 45.3206 222.735 45.3206L225.454 45.3206Q225.962 45.3206 225.962 45.7659Q225.962 45.8987 225.837 46.219L219.821 59.0471Q218.571 61.6721 217.719 63.0159Q216.876 64.3596 215.805 65.0159Q214.735 65.6721 213.134 65.6721Z" fill="rgb(109,125,125)" fill-rule="nonzero" />
</svg>
