<svg viewBox="0 0 255 98" xmlns="http://www.w3.org/2000/svg" xmlns:xlink="http://www.w3.org/1999/xlink" width="255.000000" height="98.000000" fill="none" customFrame="#000000">
	<rect id="Logo3" width="255.000000" height="98.000000" x="0.000000" y="0.000000" />
	<rect id="Rectangle 13" width="255.000000" height="98.000000" x="0.000000" y="0.000000" fill="rgb(255,255,255)" fill-opacity="0" />
	<path id="Reys Ceramics" d="M64.8301 58.9858Q63.5488 58.9858 62.6348 57.9624Q61.7285 56.939 61.0566 55.3374Q60.3848 53.7358 59.8691 52.0405Q58.6894 48.1655 58.8769 47.4312Q56.9941 49.9624 55.6113 51.6421Q54.2363 53.3218 53.3769 54.1499Q49.6035 57.7983 45.7285 57.7983Q44.5723 57.7983 43.8223 57.314Q43.0723 56.8374 43.0723 55.7202Q43.0723 55.0171 43.3926 54.2046Q43.7129 53.3843 44.1973 52.6499Q44.6738 51.9155 45.1504 51.4312Q46.2051 50.3765 46.9082 50.3765Q47.041 50.3765 47.041 50.439Q47.041 50.603 46.5566 50.9858Q45.4394 51.8765 44.7051 53.0483Q43.9707 54.2124 43.9707 55.1733Q43.9707 56.9702 46.4941 56.8687Q50.6269 56.7124 57.9551 46.8843Q58.3691 46.3452 58.6582 46.1187L58.1426 45.9312Q57.7285 46.0874 57.4707 46.0874Q56.7988 46.0874 56.7988 45.5405Q56.7988 44.8062 57.791 44.5874Q58.4004 44.4233 59.3613 45.1265Q60.6113 43.7202 61.7754 42.439Q62.9473 41.1577 63.9004 40.3452Q64.8613 39.5249 65.4394 39.5249Q66.2051 39.5249 66.2051 40.228Q66.2051 40.5171 66.0644 40.8218Q65.9238 41.1265 65.7285 41.1265Q65.5332 41.1577 65.5332 40.939Q65.5332 40.7749 65.7285 40.5483L65.7285 40.4233Q65.7285 40.228 65.6035 40.1343Q64.7676 39.5952 60.4785 45.5405Q60.8301 45.5796 61.2285 45.5952Q61.6348 45.6108 62.0801 45.6108Q69.5019 45.6108 71.3613 41.7671Q71.7441 40.939 71.7441 40.228Q71.7441 38.8218 70.4316 37.7671Q69.2441 36.8062 67.3066 36.4702Q65.3769 36.1343 63.4551 36.1343Q59.1973 36.1343 54.4004 38.4702Q48.5723 41.3218 48.5723 45.1577Q48.5723 46.4077 50.2051 46.4077Q51.7129 46.4077 53.6035 45.189Q55.2285 44.103 55.8379 42.9858Q56.0644 42.5718 56.2598 42.5718Q56.4785 42.5718 56.3848 42.8218Q55.7754 44.6187 53.666 45.8921Q51.6191 47.1421 49.4394 47.1421Q46.8457 47.1421 47.041 45.478Q47.5176 41.2905 52.1894 38.3452Q56.8301 35.4312 63.3926 35.4312Q65.8848 35.4312 68.2363 35.8843Q70.5957 36.3296 72.0644 37.5405Q73.6035 38.8218 73.6035 40.5483Q73.6035 41.2905 73.2441 42.1499Q72.7051 43.3999 71.5801 44.2827Q70.4629 45.1577 68.9863 45.7046Q67.5176 46.2515 65.8848 46.5093Q64.2598 46.7593 62.7207 46.7593Q61.8848 46.7593 61.1348 46.6968Q60.3848 46.6343 59.7441 46.5015Q59.9394 47.1108 60.416 48.7124Q60.8926 50.314 61.6348 52.8687Q61.8535 53.5796 62.2519 54.4155Q62.6582 55.2437 63.166 55.978Q63.6816 56.7124 64.2676 57.189Q64.8613 57.6733 65.4707 57.6733Q66.8144 57.6733 67.7129 54.9546Q67.8691 54.314 68.0644 54.314Q68.2207 54.314 68.3535 54.9233Q68.3848 55.0171 68.3848 55.1733Q68.3848 56.0093 67.4863 57.2202Q66.3066 58.9858 64.8301 58.9858ZM70.1128 55.814Q69.0894 55.814 68.2613 55.1577Q67.4253 54.5015 67.4253 53.4155Q67.4253 51.1421 70.2066 48.228Q73.0581 45.2905 75.2925 45.2905Q76.0347 45.2905 76.4956 45.689Q76.9566 46.0874 76.9566 46.6655Q76.9566 48.4546 74.1128 50.1812Q71.5816 51.7202 69.855 51.7202Q69.5972 51.7202 69.4097 51.6577Q68.9253 52.5171 68.9253 53.478Q68.9253 55.1421 70.4956 55.1421Q72.0972 55.1421 74.6206 53.0015Q76.5738 51.4312 77.9488 49.6733Q78.2378 49.2905 78.4644 49.2905Q78.6597 49.2905 78.6597 49.478Q78.6597 49.6733 78.4019 50.0249Q77.5034 51.2046 76.48 52.1968Q75.4566 53.189 74.2691 54.0249Q71.8081 55.814 70.1128 55.814ZM70.3003 51.0171Q71.5191 51.0171 73.4722 49.7983Q74.1128 49.353 74.7378 48.7905Q75.3628 48.228 75.7613 47.6577Q76.1597 47.0796 76.1597 46.6343Q76.1597 46.2124 75.4878 46.2124Q74.5269 46.2124 72.8003 47.6577Q71.9644 48.3608 71.1988 49.1968Q70.4331 50.0249 69.8863 50.9546Q70.0816 51.0171 70.3003 51.0171ZM77.4384 61.9624Q76.4149 61.9624 75.6493 61.0952Q74.8837 60.1968 74.9149 59.1108Q75.2978 59.5952 75.9384 60.228Q76.7665 61.0327 77.5712 61.0327Q79.3915 61.0327 81.5009 58.1187Q82.2431 57.0952 83.0243 55.7358Q83.8056 54.3765 84.5087 52.7124L85.7274 49.7671L81.0243 53.4468Q78.8446 55.1421 77.5321 55.1421Q76.829 55.1421 76.4149 54.6343Q76.0009 54.1187 76.0009 53.5796Q76.0009 52.1968 78.3681 49.064Q80.7353 45.8921 81.9228 45.8921Q82.9149 45.8921 82.9149 46.6343Q82.9149 46.9233 80.0634 49.9624Q77.2509 52.9702 77.2509 54.0249Q77.2509 54.439 77.7899 54.439Q78.8134 54.439 82.2431 51.7827Q83.6493 50.6655 84.7353 49.7358Q85.8212 48.8062 86.5634 48.0718Q86.8134 47.7515 87.0712 47.4468Q87.329 47.1421 87.5556 46.8218Q88.1571 46.1187 88.7665 46.1187Q89.6337 46.1187 89.6337 46.8218Q89.6337 46.9546 88.2899 48.939Q87.5868 50.0249 87.1649 50.6187Q86.7509 51.2046 86.6884 51.3687Q85.6962 53.2905 83.6493 56.9702Q80.5478 61.9624 77.4384 61.9624ZM92.2237 55.4624Q90.7237 55.4624 89.9971 54.4702Q89.2784 53.478 88.8331 51.7202Q88.2549 52.2983 88.0284 52.2983Q87.8721 52.2983 87.8721 52.0405Q87.8721 51.8452 88.0284 51.689Q88.0284 51.689 88.8409 50.6968Q89.6612 49.7046 91.6143 47.9155L95.6456 44.1343Q96.4815 43.3374 96.9737 42.9233Q97.4737 42.5015 97.6924 42.5015Q98.7237 42.5015 98.7237 43.2749Q98.7237 43.6577 98.3018 44.1655Q97.9815 44.5483 97.8331 44.7593Q97.6924 44.9702 97.6612 45.0015Q97.0909 45.9937 96.6065 48.5483Q96.2549 50.439 95.9971 51.6577Q95.7471 52.8687 95.5831 53.4155Q96.9268 53.3843 98.2393 52.5874Q99.5518 51.7827 101.06 49.9624Q101.122 49.8921 101.247 49.7671Q101.372 49.6421 101.505 49.6421Q101.692 49.6421 101.692 49.7983Q101.692 49.9624 101.599 50.1265Q101.505 50.2827 101.411 50.4077Q100.419 51.5952 99.5518 52.3452Q98.6846 53.0952 97.7237 53.5327Q96.7706 53.9624 95.4581 54.2515L94.4346 54.9233Q94.0128 55.2046 93.4346 55.3374Q92.8643 55.4624 92.2237 55.4624ZM92.6065 53.8296Q93.3409 53.8296 93.8253 53.478Q94.1768 53.2905 94.5128 52.4077Q94.8487 51.5249 95.169 50.2124Q95.4268 49.0952 95.5674 48.0249Q95.7159 46.9546 95.8409 45.9624L95.9659 44.8687Q95.2315 45.4155 94.1065 46.439Q92.9893 47.4624 91.9034 48.5874Q90.8174 49.7046 90.4971 50.2358Q90.1768 50.7593 90.1456 51.0171Q90.0128 52.2983 90.7628 53.064Q91.5206 53.8296 92.6065 53.8296ZM114.782 57.478Q111.235 57.478 109.298 55.5874Q107.36 53.7046 107.36 50.6968Q107.36 47.9468 108.72 45.3218Q110.079 42.6968 112.157 40.4858Q113.852 38.6968 116.048 37.3843Q118.243 36.0718 120.657 35.3374Q123.071 34.603 125.376 34.603Q127.196 34.603 128.665 35.103Q130.141 35.5952 131.009 36.6499Q131.876 37.7046 131.876 39.3999Q131.876 40.9077 131.149 42.2046Q130.431 43.4937 129.227 44.4546Q128.032 45.4155 126.587 45.9624Q125.149 46.5015 123.681 46.5015Q121.759 46.5015 120.446 45.6265Q119.134 44.7437 119.134 43.3999Q119.134 41.6733 121.345 40.0093Q121.727 39.7202 121.954 39.7202Q122.11 39.7202 122.11 39.8452Q122.11 40.1655 121.602 40.3608Q119.806 41.7983 119.806 43.2749Q119.806 44.3296 120.766 45.0483Q121.727 45.7671 123.165 45.7671Q124.446 45.7671 125.743 45.228Q127.04 44.6812 128.126 43.7515Q129.22 42.8218 129.868 41.6577Q130.524 40.4858 130.524 39.2046Q130.524 37.1265 129.118 36.1655Q127.712 35.2046 125.532 35.2046Q123.071 35.2046 120.657 36.1343Q118.243 37.064 116.126 38.6968Q114.016 40.3296 112.352 42.439Q109.024 46.6343 109.024 50.314Q109.024 52.2671 109.915 53.6265Q110.813 54.9858 112.399 55.689Q113.985 56.3921 116.032 56.3921Q119.071 56.3921 121.915 55.064Q124.766 53.7358 126.782 51.4937Q127.329 50.9233 127.587 50.9233Q127.774 50.9233 127.774 51.2046Q127.774 51.5952 127.423 51.9468Q126.337 53.0952 124.829 54.0874Q123.329 55.0796 121.618 55.8452Q119.907 56.6187 118.141 57.0483Q116.384 57.478 114.782 57.478ZM131.233 55.814Q130.209 55.814 129.381 55.1577Q128.545 54.5015 128.545 53.4155Q128.545 51.1421 131.327 48.228Q134.178 45.2905 136.413 45.2905Q137.155 45.2905 137.616 45.689Q138.077 46.0874 138.077 46.6655Q138.077 48.4546 135.233 50.1812Q132.702 51.7202 130.975 51.7202Q130.717 51.7202 130.53 51.6577Q130.045 52.5171 130.045 53.478Q130.045 55.1421 131.616 55.1421Q133.217 55.1421 135.741 53.0015Q137.694 51.4312 139.069 49.6733Q139.358 49.2905 139.584 49.2905Q139.78 49.2905 139.78 49.478Q139.78 49.6733 139.522 50.0249Q138.623 51.2046 137.6 52.1968Q136.577 53.189 135.389 54.0249Q132.928 55.814 131.233 55.814ZM131.42 51.0171Q132.639 51.0171 134.592 49.7983Q135.233 49.353 135.858 48.7905Q136.483 48.228 136.881 47.6577Q137.28 47.0796 137.28 46.6343Q137.28 46.2124 136.608 46.2124Q135.647 46.2124 133.92 47.6577Q133.084 48.3608 132.319 49.1968Q131.553 50.0249 131.006 50.9546Q131.202 51.0171 131.42 51.0171ZM144.355 55.5562Q142.972 55.5562 142.457 54.8374Q141.949 54.1187 141.949 52.9077Q141.949 51.5562 142.785 49.7046Q143.105 48.9702 143.457 48.3765Q143.808 47.7827 144.191 47.2749Q144.066 47.3062 143.965 47.3062Q143.871 47.3062 143.777 47.3062Q143.012 47.3062 142.496 46.2124L140.129 49.2905Q138.238 51.7515 137.824 51.7515Q137.668 51.7515 137.668 51.6265Q137.668 51.4624 137.824 51.2046Q137.918 51.0171 138.207 50.6968Q139.426 49.2905 140.449 47.9155Q141.472 46.5327 142.144 45.2202Q142.879 42.439 144.004 42.439Q144.738 42.439 144.738 43.1108Q144.738 43.7202 143.933 44.7124Q143.168 45.7046 143.168 45.7358Q143.168 46.4077 144.16 46.4077Q144.738 46.4077 145.441 45.9937L146.269 45.478Q146.34 45.4468 146.465 45.4468Q146.847 45.4468 147.137 45.7671Q147.426 46.0874 147.332 46.3452L145.121 49.1265Q143.074 51.7515 143.074 53.353Q143.074 54.7905 144.48 54.7905Q145.441 54.7905 146.543 54.2202Q147.644 53.6421 148.683 52.7983Q149.73 51.9468 150.433 51.1421L151.199 50.2515Q151.262 50.1812 151.355 50.0874Q151.457 49.9937 151.519 49.9937Q151.746 49.9937 151.746 50.2124Q151.746 50.2827 151.676 50.4468Q151.613 50.603 151.457 50.7905L150.433 51.9468Q149.699 52.7749 148.621 53.6265Q147.551 54.4702 146.41 55.0171Q145.277 55.5562 144.355 55.5562ZM152.573 55.5562Q151.807 55.5562 151.041 55.0171Q150.276 54.4702 150.174 53.7358Q149.854 51.2749 153.284 47.8765Q156.674 44.4858 159.393 44.4858Q160.127 44.4858 160.541 44.8374Q160.768 45.064 160.877 45.4468Q160.995 45.8296 161.057 45.8296Q161.182 45.8296 161.276 45.7827Q161.377 45.7358 161.502 45.7358Q161.885 45.7358 162.174 46.0249Q162.463 46.314 162.495 46.5327Q162.526 46.603 160.448 49.7046Q158.37 52.7437 158.557 53.8296Q158.721 54.5718 159.26 54.5718Q160.924 54.5718 165.346 49.064Q165.44 48.939 165.534 48.939Q165.698 48.939 165.698 49.1577Q165.698 49.4155 165.409 49.7983Q161.346 55.2749 159.166 55.2749Q158.877 55.2749 158.627 55.1733Q157.213 54.6343 157.213 53.064Q157.213 52.5171 157.346 51.978L155.362 53.8921Q154.463 54.7905 153.745 55.1733Q153.026 55.5562 152.573 55.5562ZM152.291 54.853Q154.143 54.853 157.346 50.7905L160.737 46.1187Q160.479 45.6733 159.901 45.6733Q157.955 45.6733 154.627 48.8062Q151.166 52.0093 151.518 54.0874Q151.682 54.853 152.291 54.853ZM171.171 55.4624Q170.397 55.4624 170.397 54.603Q170.749 52.8062 171.843 50.5718Q172.35 49.478 172.874 48.4233Q173.405 47.3687 173.921 46.2827Q172.733 47.0796 171.546 48.0562Q170.366 49.0327 169.249 50.2515Q167.936 51.6577 166.21 53.8608Q164.96 55.4312 164.764 55.4312Q164.319 55.4312 164.03 55.0171Q163.741 54.603 163.741 54.314Q163.741 53.8921 164.483 52.1655Q164.702 51.6265 164.944 51.103Q165.186 50.5718 165.405 50.0562L163.491 52.0718Q163.421 52.1343 163.108 52.4546Q162.788 52.7749 162.593 52.7749Q162.428 52.7749 162.428 52.5483Q162.428 52.4858 162.483 52.3765Q162.53 52.2671 162.686 52.103Q163.171 51.6265 163.678 51.0796Q164.194 50.5327 164.733 49.8296Q165.155 49.2905 165.936 48.2202Q166.718 47.1421 167.874 45.5093Q168.225 45.0327 168.866 45.0327Q169.507 45.0327 169.507 45.6421Q169.507 45.8608 167.874 48.6187Q167.038 50.0874 166.538 51.0171Q166.046 51.9468 165.921 52.3921Q166.624 51.6265 167.6 50.6655Q168.577 49.7046 169.858 48.5171Q173.796 44.8687 175.038 44.8687Q175.389 44.8687 175.725 45.0952Q176.061 45.3218 176.061 45.6733Q176.061 45.8296 174.819 48.0093Q173.6 50.2124 173.475 50.6343Q177.022 47.6577 177.022 47.6265Q180.03 45.2905 181.343 45.2905Q181.725 45.2905 182.061 45.5327Q182.397 45.7671 182.397 46.0874Q182.397 46.1499 180.35 48.7749Q178.241 51.4312 177.983 53.1265Q177.858 54.2827 179.171 54.2827Q179.968 54.2827 181.405 53.2593Q182.85 52.228 184.413 50.439Q184.608 50.2124 184.827 50.0093Q185.053 49.7983 185.218 49.7983Q185.405 49.7983 185.405 49.9624Q185.405 50.1812 185.124 50.4702Q184.288 51.4624 183.147 52.5249Q182.014 53.5796 180.889 54.2983Q179.772 55.0171 178.913 55.0171Q176.733 55.0171 176.733 53.0015Q176.733 52.2983 177.116 51.353Q177.507 50.4077 177.889 49.6421Q178.819 47.8452 179.905 46.4702Q178.882 46.9858 177.772 47.8218Q176.671 48.6499 175.491 49.7671Q172.733 52.4546 171.71 55.2046Q171.553 55.4624 171.171 55.4624ZM190.878 44.3921Q190.339 44.3921 189.933 44.0405Q189.535 43.689 189.535 43.2437Q189.535 42.3452 190.753 42.3452Q191.199 42.3452 191.644 42.6499Q192.097 42.9546 192.097 43.3999Q192.097 43.7827 191.675 44.0874Q191.261 44.3921 190.878 44.3921ZM184.956 55.7515Q184.253 55.7515 183.792 55.2905Q183.331 54.8218 183.331 53.6421Q183.331 52.9702 183.636 52.0874Q183.933 51.2046 184.394 50.314Q184.863 49.4155 185.316 48.7124Q187.105 45.7983 188.253 45.7671Q188.542 45.7671 188.956 46.0093Q189.378 46.2515 189.378 46.5327Q189.378 46.5327 186.941 49.6733Q184.542 52.7749 184.542 54.0874Q184.542 55.1108 185.347 55.1108Q185.855 55.1108 186.667 54.6812Q187.488 54.2515 188.378 53.5796Q189.277 52.9077 190.089 52.1421Q190.91 51.3687 191.425 50.728Q191.745 50.314 191.98 50.1577Q192.222 49.9937 192.285 49.9937Q192.417 49.9937 192.417 50.1812Q192.417 50.3452 192.05 50.8296Q191.683 51.3062 191.042 51.9468Q190.269 52.7124 189.339 53.6108Q188.417 54.5015 187.324 55.1265Q186.238 55.7515 184.956 55.7515ZM193.47 55.814Q192.446 55.814 191.61 55.1577Q190.782 54.5015 190.782 53.4155Q190.782 51.1421 193.571 48.228Q196.415 45.2905 198.657 45.2905Q199.423 45.2905 199.868 45.689Q200.321 46.0874 200.321 46.6655Q200.321 47.4624 199.938 48.1343Q199.485 48.9702 198.657 48.9702Q197.821 48.9702 197.821 48.4546Q197.821 48.103 198.243 47.3999Q198.688 46.6655 198.688 46.6343Q198.688 46.5718 198.595 46.5718Q197.696 46.6655 196.095 47.8765Q195.392 48.4233 194.86 48.9077Q194.337 49.3843 194.017 49.8296L192.767 51.6577Q192.579 51.9468 192.368 52.6499Q192.157 53.353 192.157 53.7046Q192.157 54.3452 192.587 54.7593Q193.024 55.1733 193.696 55.1733Q195.298 55.1733 197.923 53.0952Q200.032 51.4312 201.313 49.7358Q201.47 49.5405 201.696 49.5405Q201.923 49.5405 201.923 49.6733Q201.923 49.7671 201.759 49.9937Q200.001 52.3296 197.634 54.0249Q195.102 55.814 193.47 55.814ZM203.776 55.4624Q202.276 55.4624 201.549 54.4702Q200.83 53.478 200.385 51.7202Q199.807 52.2983 199.58 52.2983Q199.424 52.2983 199.424 52.0405Q199.424 51.8452 199.58 51.689Q199.58 51.689 200.393 50.6968Q201.213 49.7046 203.166 47.9155L207.198 44.1343Q208.033 43.3374 208.526 42.9233Q209.026 42.5015 209.244 42.5015Q210.276 42.5015 210.276 43.2749Q210.276 43.6577 209.854 44.1655Q209.533 44.5483 209.385 44.7593Q209.244 44.9702 209.213 45.0015Q208.643 45.9937 208.158 48.5483Q207.807 50.439 207.549 51.6577Q207.299 52.8687 207.135 53.4155Q208.479 53.3843 209.791 52.5874Q211.104 51.7827 212.612 49.9624Q212.674 49.8921 212.799 49.7671Q212.924 49.6421 213.057 49.6421Q213.244 49.6421 213.244 49.7983Q213.244 49.9624 213.151 50.1265Q213.057 50.2827 212.963 50.4077Q211.971 51.5952 211.104 52.3452Q210.237 53.0952 209.276 53.5327Q208.323 53.9624 207.01 54.2515L205.987 54.9233Q205.565 55.2046 204.987 55.3374Q204.416 55.4624 203.776 55.4624ZM204.158 53.8296Q204.893 53.8296 205.377 53.478Q205.729 53.2905 206.065 52.4077Q206.401 51.5249 206.721 50.2124Q206.979 49.0952 207.119 48.0249Q207.268 46.9546 207.393 45.9624L207.518 44.8687Q206.783 45.4155 205.658 46.439Q204.541 47.4624 203.455 48.5874Q202.369 49.7046 202.049 50.2358Q201.729 50.7593 201.698 51.0171Q201.565 52.2983 202.315 53.064Q203.073 53.8296 204.158 53.8296Z" fill="rgb(109,125,125)" fill-rule="nonzero" />
</svg>
