<svg viewBox="0 0 255 98" xmlns="http://www.w3.org/2000/svg" xmlns:xlink="http://www.w3.org/1999/xlink" width="255.000000" height="98.000000" fill="none" customFrame="#000000">
	<rect id="Logo1" width="255.000000" height="98.000000" x="0.000000" y="0.000000" />
	<rect id="Rectangle 11" width="255.000000" height="98.000000" x="0.000000" y="0.000000" fill="rgb(255,255,255)" fill-opacity="0" />
	<path id="Sparta .Inc" d="M103.118 55.0986Q101.313 55.0986 99.9716 54.7119Q98.6298 54.3252 97.4989 53.5576L98.2665 51.9287Q100.282 53.3701 103.118 53.3701Q104.747 53.3701 105.825 52.5791Q106.909 51.7822 106.909 50.417Q106.909 49.5732 106.405 48.999Q105.901 48.4248 105.145 48.0791Q104.39 47.7275 103.042 47.2471Q101.436 46.6729 100.464 46.1924Q99.4911 45.7119 98.8056 44.8389Q98.1259 43.96 98.1259 42.5947Q98.1259 40.4326 99.661 39.2549Q101.196 38.0771 103.599 38.0771Q106.475 38.0771 108.614 39.5947L107.847 41.1768Q105.925 39.7822 103.645 39.7822Q102.181 39.7822 101.243 40.4795Q100.306 41.1768 100.306 42.4951Q100.306 43.3096 100.809 43.8662Q101.313 44.417 102.058 44.7686Q102.802 45.1143 104.126 45.5947Q105.731 46.1689 106.716 46.6611Q107.7 47.1533 108.397 48.0557Q109.095 48.9521 109.095 50.3174Q109.095 51.7822 108.35 52.8662Q107.606 53.9443 106.247 54.5244Q104.893 55.0986 103.118 55.0986ZM118.404 41.4639Q119.986 41.4639 121.187 42.2432Q122.388 43.0225 123.056 44.5225Q123.73 46.0225 123.73 48.0615Q123.73 51.542 121.931 53.3467Q120.132 55.1455 117.179 55.1455Q115.908 55.1455 114.783 54.7119L114.783 60.3779L112.644 60.3779L112.644 41.8506L114.302 41.8506L114.542 42.9287Q116.242 41.4639 118.404 41.4639ZM117.085 53.4873Q119.365 53.4873 120.454 52.0225Q121.55 50.5576 121.55 48.0146Q121.55 45.4717 120.601 44.3115Q119.652 43.1455 118.257 43.1455Q117.226 43.1455 116.447 43.4443Q115.667 43.7432 114.783 44.417L114.783 53.0303Q115.814 53.4873 117.085 53.4873ZM137.721 54.6885Q136.86 54.999 135.999 55.0225Q135.038 55.0225 134.423 54.6416Q133.813 54.2549 133.667 53.2939Q131.387 55.0459 129.442 55.0459Q127.93 55.0459 126.969 54.1729Q126.014 53.2939 126.014 51.9756Q126.014 50.751 126.682 49.9482Q127.356 49.1455 128.569 48.6182Q129.782 48.0908 131.844 47.4873L133.62 46.9834L133.62 46.0459Q133.62 43.1689 131.434 43.1689Q130.239 43.1689 129.225 43.6611Q128.217 44.1533 126.946 45.4951L126.061 44.1533Q128.751 41.4639 131.844 41.4639Q133.907 41.4639 134.833 42.5479Q135.758 43.626 135.758 46.1455L135.758 52.4092Q135.758 52.9365 135.946 53.165Q136.139 53.3936 136.549 53.3936Q136.907 53.3936 137.581 53.1533L137.721 54.6885ZM128.147 51.8057Q128.147 52.626 128.628 53.0127Q129.108 53.3936 129.899 53.3936Q130.714 53.3936 131.587 52.9834Q132.465 52.5732 133.62 51.7354L133.62 48.4014L132.255 48.8057Q129.969 49.5029 129.055 50.1533Q128.147 50.7979 128.147 51.8057ZM147.11 43.4795Q145.955 43.4795 144.912 43.8779Q143.869 44.2705 142.575 45.3252L142.575 54.7119L140.436 54.7119L140.436 41.8975L142.094 41.8975L142.475 43.626Q143.653 42.4482 144.766 41.9678Q145.885 41.4873 147.11 41.4873L147.11 43.4795ZM157.261 54.2314Q156.013 55.0225 154.572 55.0225Q152.509 55.0225 151.525 53.9092Q150.54 52.79 150.54 50.7041L150.54 43.5029L148.501 43.5029L148.501 42.5947L150.734 41.9678L151.378 38.874L152.673 38.874L152.673 41.8975L156.517 41.8975L156.517 43.5029L152.673 43.5029L152.673 50.3701Q152.673 51.9287 153.177 52.6377Q153.687 53.3467 154.812 53.3467Q155.363 53.3174 155.831 53.1768Q156.3 53.0303 156.874 52.7197L157.261 54.2314ZM170.937 54.6885Q170.076 54.999 169.215 55.0225Q168.254 55.0225 167.638 54.6416Q167.029 54.2549 166.883 53.2939Q164.603 55.0459 162.658 55.0459Q161.146 55.0459 160.185 54.1729Q159.23 53.2939 159.23 51.9756Q159.23 50.751 159.898 49.9482Q160.572 49.1455 161.785 48.6182Q162.998 48.0908 165.06 47.4873L166.836 46.9834L166.836 46.0459Q166.836 43.1689 164.65 43.1689Q163.455 43.1689 162.441 43.6611Q161.433 44.1533 160.162 45.4951L159.277 44.1533Q161.967 41.4639 165.06 41.4639Q167.123 41.4639 168.049 42.5479Q168.974 43.626 168.974 46.1455L168.974 52.4092Q168.974 52.9365 169.162 53.165Q169.355 53.3936 169.765 53.3936Q170.123 53.3936 170.797 53.1533L170.937 54.6885ZM161.363 51.8057Q161.363 52.626 161.844 53.0127Q162.324 53.3936 163.115 53.3936Q163.93 53.3936 164.803 52.9834Q165.681 52.5732 166.836 51.7354L166.836 48.4014L165.471 48.8057Q163.185 49.5029 162.271 50.1533Q161.363 50.7979 161.363 51.8057ZM180.753 54.9287Q180.156 54.9287 179.722 54.4951Q179.294 54.0615 179.294 53.4639Q179.294 52.8662 179.722 52.4326Q180.156 51.999 180.753 51.999Q181.357 51.999 181.785 52.4326Q182.218 52.8662 182.218 53.4639Q182.218 54.0615 181.796 54.4951Q181.38 54.9287 180.753 54.9287ZM186.782 38.3936L188.985 38.3936L188.985 54.7119L186.782 54.7119L186.782 38.3936ZM200.412 41.4639Q202.522 41.4639 203.324 42.583Q204.133 43.6963 204.133 45.7822L204.133 54.7119L201.994 54.7119L201.994 45.9756Q201.994 44.4639 201.514 43.8193Q201.033 43.1689 199.862 43.1689Q198.971 43.1689 198.057 43.5791Q197.149 43.9834 196.071 44.8213L196.071 54.7119L193.932 54.7119L193.932 41.8975L195.59 41.8975L195.901 43.2393Q198.227 41.4639 200.412 41.4639ZM213.563 55.1455Q211.547 55.1455 210.153 54.2197Q208.764 53.2939 208.079 51.7588Q207.399 50.2236 207.399 48.3252Q207.399 46.4561 208.102 44.8975Q208.811 43.333 210.252 42.4014Q211.694 41.4639 213.827 41.4639Q215.004 41.4639 216.082 41.8623Q217.166 42.2549 217.858 42.9756L217.067 44.4873Q216.469 43.8662 215.602 43.4971Q214.741 43.1221 213.827 43.1221Q211.811 43.1221 210.692 44.5518Q209.579 45.9756 209.579 48.3018Q209.579 50.6572 210.622 52.0752Q211.67 53.4873 213.563 53.4873Q214.741 53.4873 215.649 52.9951Q216.563 52.5029 217.377 51.6416L218.198 53.0068Q217.377 53.9443 216.188 54.5479Q215.004 55.1455 213.563 55.1455Z" fill="rgb(109,125,125)" fill-rule="nonzero" />
	<path id="Vector" d="M40.8605 46.0943C40.6588 45.3308 40.6587 44.5269 40.8604 43.7634C41.062 42.9999 41.4582 42.3036 42.0091 41.7447L53.489 30.0972C54.0399 29.5382 54.7261 29.1362 55.4786 28.9316C56.2312 28.7271 57.0235 28.7271 57.7761 28.9317L68.5184 31.8521C68.6302 30.359 69.1425 28.9253 70 27.7064L57.0616 24.1893C56.133 23.9369 55.1552 23.9369 54.2265 24.1893C53.2978 24.4418 52.451 24.9378 51.7712 25.6275L37.6041 40.0015C36.9243 40.6913 36.4354 41.5504 36.1866 42.4927C35.9378 43.4349 35.9378 44.427 36.1866 45.3692L39.7864 59C40.9632 58.0882 42.3643 57.5219 43.8366 57.3631L40.8605 46.0943Z" fill="rgb(109,125,125)" fill-rule="nonzero" />
	<path id="Vector" d="M77.948 40.7451L81.0685 52.2231C81.2732 52.9758 81.2729 53.7681 81.0685 54.5205C80.8638 55.2732 80.4617 55.9593 79.9028 56.5102L68.2552 67.9907C67.6963 68.5416 67.0002 68.9376 66.2365 69.1394C65.4731 69.3409 64.669 69.3409 63.9056 69.1394L52.6369 66.1631C52.4781 67.6356 51.9119 69.0367 51 70.2134L64.6307 73.8133C65.5729 74.0622 66.565 74.0622 67.5072 73.8133C68.4496 73.5644 69.3086 73.0757 69.9985 72.3958L84.3724 58.2284C85.0622 57.5485 85.558 56.7018 85.8106 55.7729C86.0631 54.8443 86.0631 53.8664 85.8106 52.9378L82.0205 39C80.8517 39.9402 79.4425 40.5441 77.948 40.7451Z" fill="rgb(109,125,125)" fill-rule="nonzero" />
	<path id="Vector" d="M39.9038 60.9012C38.9948 61.8103 38.3757 62.969 38.1249 64.23C37.8741 65.4912 38.0028 66.7985 38.4948 67.9866C38.9867 69.1743 39.8199 70.1898 40.8888 70.9043C41.9577 71.6185 43.2144 72 44.5 72C45.7856 72 47.0423 71.6185 48.1112 70.9043C49.1801 70.1898 50.0133 69.1743 50.5052 67.9866C50.9972 66.7985 51.1259 65.4912 50.8751 64.23C50.6243 62.969 50.0052 61.8103 49.0962 60.9012C47.8762 59.6838 46.2233 59 44.5 59C42.7767 59 41.1238 59.6838 39.9038 60.9012Z" fill="rgb(109,125,125)" fill-rule="nonzero" />
	<path id="Vector" d="M71.9038 27.9012C70.9949 28.8104 70.3755 29.9689 70.1249 31.2301C69.8741 32.4912 70.0028 33.7985 70.4948 34.9865C70.9868 36.1745 71.8198 37.1899 72.8886 37.9043C73.9577 38.6187 75.2144 39 76.4999 39C77.7856 39 79.0423 38.6187 80.1114 37.9043C81.1802 37.1899 82.0132 36.1745 82.5052 34.9865C82.9972 33.7985 83.1259 32.4912 82.8751 31.2301C82.6245 29.9689 82.0051 28.8104 81.0962 27.9012C79.8764 26.6837 78.2233 26 76.4999 26C74.7767 26 73.1236 26.6837 71.9038 27.9012Z" fill="rgb(109,125,125)" fill-rule="nonzero" />
	<path id="Vector" d="M64.7654 66C64.5078 66 64.2515 65.9663 64.0027 65.8996L53.9797 63.2139C53.6455 61.4293 52.7796 59.7873 51.4957 58.5036C50.2118 57.2199 48.5698 56.3538 46.7851 56.0198L44.0996 45.9981C43.9664 45.4982 43.9668 44.9722 44.1007 44.4725C44.2346 43.9728 44.4973 43.5171 44.8626 43.1507L55.1501 32.8635C55.516 32.4975 55.9718 32.2344 56.4717 32.1004C56.9717 31.9665 57.498 31.9665 57.9979 32.1005L67.7399 34.7108C68.1263 36.4843 69.0394 38.0998 70.3596 39.3456C71.6798 40.5915 73.3455 41.4096 75.1384 41.6927L77.9005 52.0025C78.0335 52.5026 78.0333 53.0287 77.8991 53.5282C77.7653 54.028 77.5026 54.4837 77.1372 54.8502L66.8497 65.1372C66.5767 65.4115 66.2516 65.6293 65.8939 65.7772C65.5361 65.9254 65.1526 66.0011 64.7654 66Z" fill="rgb(109,125,125)" fill-rule="nonzero" />
</svg>
