<svg viewBox="0 0 255 98" xmlns="http://www.w3.org/2000/svg" xmlns:xlink="http://www.w3.org/1999/xlink" width="255.000000" height="98.000000" fill="none" customFrame="#000000">
	<rect id="Logo4" width="255.000000" height="98.000000" x="0.000000" y="0.000000" />
	<rect id="Rectangle 14" width="255.000000" height="98.000000" x="0.000000" y="0.000000" fill="rgb(255,255,255)" fill-opacity="0" />
	<path id="Vector" d="M90.2446 33.7061L91.9417 31.9967C95.2745 28.6397 100.7 28.5566 104.052 31.8942C105.322 33.1617 106.166 34.7982 106.466 36.5736C106.765 38.3492 106.505 40.1745 105.721 41.7933C105.346 42.5666 105.219 43.4388 105.359 44.2881C105.499 45.1374 105.9 45.9214 106.504 46.5305C107.614 45.4091 108.495 44.0783 109.095 42.614C109.694 41.1498 110.002 39.5808 110 37.9967C109.998 36.4127 109.686 34.8446 109.082 33.3821C108.478 31.9195 107.593 30.5912 106.48 29.473C101.792 24.7784 94.1844 24.8718 89.5105 29.5796L73.3338 45.8735L72.0039 44.534C68.6146 41.12 68.593 35.5396 72.0421 32.1864C73.3188 30.949 74.9453 30.1412 76.6972 29.8745C78.4491 29.6079 80.2399 29.8956 81.8226 30.6978C82.5449 31.0706 83.3658 31.204 84.168 31.0789C84.9701 30.9537 85.7124 30.5765 86.289 30.001L86.3302 29.9596C86.3431 29.9468 86.3532 29.9315 86.3602 29.9147C86.3671 29.8979 86.3707 29.8798 86.3707 29.8616C86.3707 29.8434 86.3671 29.8253 86.3602 29.8085C86.3532 29.7917 86.3431 29.7764 86.3302 29.7636C84.1037 27.5772 81.1201 26.3491 78.0107 26.3392C74.9013 26.3293 71.9099 27.5383 69.6697 29.7104C64.8441 34.4027 64.8613 42.2057 69.6043 46.9831L85.7762 63.2727L84.0583 65.0031C80.7255 68.3601 75.2995 68.4432 71.9478 65.1055C70.6777 63.8381 69.8337 62.2015 69.5342 60.4261C69.2348 58.6507 69.495 56.8253 70.2784 55.2064C70.6542 54.4331 70.7808 53.5609 70.6407 52.7117C70.5005 51.8624 70.1004 51.0783 69.4965 50.4692C68.3857 51.5907 67.5053 52.9214 66.9053 54.3856C66.3054 55.85 65.9978 57.4188 66 59.003C66.0022 60.587 66.3143 62.1552 66.9183 63.6176C67.5224 65.0802 68.4066 66.4086 69.5205 67.5268C74.2073 72.2215 81.8156 72.1283 86.4896 67.4204L102.687 51.1047L104.022 52.4493C107.355 55.8063 107.437 61.2715 104.124 64.6476C102.866 65.9272 101.241 66.7772 99.4782 67.079C97.7156 67.3806 95.9034 67.1183 94.2962 66.3292C93.5282 65.9505 92.6619 65.8228 91.8184 65.9643C90.975 66.1057 90.1964 66.509 89.5916 67.1179C90.705 68.2368 92.0262 69.1237 93.4798 69.728C94.9336 70.3322 96.4911 70.6422 98.0639 70.64C99.6364 70.6376 101.193 70.3232 102.645 69.7148C104.097 69.1063 105.416 68.2157 106.526 67.0937C111.187 62.3728 111.094 54.7092 106.42 50.0014L90.2446 33.7061ZM88.1911 60.8391L75.7493 48.3069L87.8288 36.1397L100.271 48.672L88.1911 60.8391Z" fill="rgb(109,125,125)" fill-rule="nonzero" />
	<path id="Fuda Furniture" d="M122.551 40.6223L122.551 45.552L120.199 45.552L120.199 34.095L128.246 34.095L128.246 36.0637L122.551 36.0637L122.551 38.6575L127.574 38.6575L127.574 40.6223L122.551 40.6223ZM137.128 45.552L134.937 45.552L134.937 44.3528Q134.038 45.7278 132.394 45.7278Q130.937 45.7278 130.183 44.8645Q129.542 44.1106 129.542 42.7981L129.542 37.0715L131.753 37.0715L131.753 42.3372Q131.753 43.8567 133.159 43.8567Q133.96 43.8567 134.448 43.4075Q134.937 42.9583 134.937 42.1926L134.937 37.0715L137.128 37.0715L137.128 45.552ZM146.806 34.095L146.806 45.552L144.599 45.552L144.599 44.6067Q143.834 45.7278 142.279 45.7278Q140.599 45.7278 139.576 44.3215Q138.697 43.1184 138.697 41.3293Q138.697 39.2004 139.818 37.9661Q140.791 36.8958 142.263 36.8958Q143.818 36.8958 144.599 38.0793L144.599 34.095L146.806 34.095ZM142.759 38.7043Q141.927 38.7043 141.416 39.427Q140.904 40.1458 140.904 41.3137Q140.904 42.4622 141.408 43.177Q141.912 43.8879 142.759 43.8879Q143.607 43.8879 144.111 43.1848Q144.615 42.4817 144.615 41.3137Q144.615 40.1262 144.103 39.4153Q143.591 38.7043 142.759 38.7043ZM156.134 44.9934L156.134 45.552L153.736 45.552Q153.498 45.2473 153.482 44.6887Q152.599 45.7278 150.919 45.7278Q149.689 45.7278 148.935 44.9778Q148.33 44.3684 148.33 43.2942Q148.33 41.6965 149.607 41.0247Q150.154 40.7356 151.767 40.4465L153.498 40.1262L153.482 39.5208Q153.462 38.6731 152.201 38.6731Q151.384 38.6731 151.056 38.9231Q150.728 39.1692 150.65 39.8254L148.537 39.8254Q148.728 36.8958 152.154 36.8958Q154.041 36.8958 154.873 37.5676Q155.623 38.2083 155.623 39.5051L155.623 44.2395Q155.623 44.8176 156.134 44.9934ZM153.498 41.4543L151.88 41.8254Q151.193 41.9856 150.857 42.2864Q150.537 42.5911 150.537 43.0403Q150.537 43.9504 151.72 43.9504Q153.431 43.9504 153.482 42.0793L153.498 41.4543ZM122.551 58.6223L122.551 63.552L120.199 63.552L120.199 52.095L128.246 52.095L128.246 54.0637L122.551 54.0637L122.551 56.6575L127.574 56.6575L127.574 58.6223L122.551 58.6223ZM137.128 63.552L134.937 63.552L134.937 62.3528Q134.038 63.7278 132.394 63.7278Q130.937 63.7278 130.183 62.8645Q129.542 62.1106 129.542 60.7981L129.542 55.0715L131.753 55.0715L131.753 60.3372Q131.753 61.8567 133.159 61.8567Q133.96 61.8567 134.448 61.4075Q134.937 60.9583 134.937 60.1926L134.937 55.0715L137.128 55.0715L137.128 63.552ZM139.224 55.0715L141.431 55.0715L141.431 56.6887Q141.849 54.8958 143.798 54.8958Q144.103 54.8958 144.232 54.8958L144.248 57.0715Q143.849 56.9934 143.416 56.9934Q142.33 56.9934 141.912 57.3918Q141.431 57.8411 141.431 59.009L141.431 63.552L139.224 63.552L139.224 55.0715ZM145.336 55.0715L147.543 55.0715L147.543 56.2708Q148.442 54.8958 150.071 54.8958Q151.528 54.8958 152.281 55.759Q152.918 56.5286 152.918 57.8411L152.918 63.552L150.727 63.552L150.727 58.2864Q150.727 56.7668 149.305 56.7668Q148.504 56.7668 148.024 57.2239Q147.543 57.6809 147.543 58.4309L147.543 63.552L145.336 63.552L145.336 55.0715ZM157.19 55.0715L157.19 63.552L154.983 63.552L154.983 55.0715L157.19 55.0715ZM156.073 52.1614Q156.503 52.1614 156.8 52.4661Q157.097 52.7668 157.097 53.2004Q157.097 53.6301 156.8 53.927Q156.503 54.2239 156.073 54.2239Q155.64 54.2239 155.335 53.927Q155.03 53.6301 155.03 53.2004Q155.03 52.7668 155.335 52.4661Q155.64 52.1614 156.073 52.1614ZM163.336 55.0715L163.336 56.5286L161.848 56.5286L161.848 61.2473Q161.848 61.7122 162.016 61.8879Q162.183 62.0637 162.633 62.0637Q163 62.0637 163.574 61.7747Q163.625 61.7434 163.656 61.7278L163.914 63.2317Q162.902 63.7278 161.801 63.7278Q159.641 63.7278 159.641 61.7434L159.641 56.5286L158.551 56.5286L158.551 55.0715L159.641 55.0715L159.641 53.6653L161.848 52.3997L161.848 55.0715L163.336 55.0715ZM172.84 63.552L170.649 63.552L170.649 62.3528Q169.75 63.7278 168.106 63.7278Q166.649 63.7278 165.895 62.8645Q165.254 62.1106 165.254 60.7981L165.254 55.0715L167.465 55.0715L167.465 60.3372Q167.465 61.8567 168.871 61.8567Q169.672 61.8567 170.16 61.4075Q170.649 60.9583 170.649 60.1926L170.649 55.0715L172.84 55.0715L172.84 63.552ZM174.936 55.0715L177.143 55.0715L177.143 56.6887Q177.561 54.8958 179.51 54.8958Q179.815 54.8958 179.944 54.8958L179.96 57.0715Q179.561 56.9934 179.128 56.9934Q178.042 56.9934 177.624 57.3918Q177.143 57.8411 177.143 59.009L177.143 63.552L174.936 63.552L174.936 55.0715ZM188.423 59.8879L182.728 59.8879Q182.775 60.9114 183.048 61.345Q183.513 62.0481 184.505 62.0481Q185.736 62.0481 186.154 61.0247L188.329 61.0247Q187.958 62.2708 186.896 63.0012Q185.833 63.7278 184.408 63.7278Q182.47 63.7278 181.431 62.4309Q180.521 61.2942 180.521 59.4387Q180.521 57.1848 181.704 55.9504Q182.743 54.8958 184.439 54.8958Q185.736 54.8958 186.712 55.5364Q187.689 56.177 188.103 57.3293Q188.439 58.2239 188.439 59.4895Q188.439 59.6497 188.423 59.8879ZM186.134 58.4309Q185.978 56.5754 184.423 56.5754Q182.966 56.5754 182.759 58.4309L186.134 58.4309Z" fill="rgb(109,125,125)" fill-rule="nonzero" />
</svg>
