<svg viewBox="0 0 212 66" xmlns="http://www.w3.org/2000/svg" xmlns:xlink="http://www.w3.org/1999/xlink" width="212.000000" height="66.000000" fill="none" customFrame="#000000">
	<g id="logo">
		<path id="ARCT" d="M74.464 52.18C74.1653 52.18 73.904 52.068 73.68 51.844C73.456 51.62 73.344 51.3587 73.344 51.06L73.456 50.444L87.624 14.1C87.9227 13.3533 88.464 12.98 89.248 12.98L91.152 12.98C91.936 12.98 92.4773 13.3533 92.776 14.1L106.944 50.444L107.056 51.06C107.056 51.3587 106.944 51.62 106.72 51.844C106.496 52.068 106.235 52.18 105.936 52.18L104.816 52.18C104.48 52.18 104.2 52.0867 103.976 51.9C103.789 51.7133 103.659 51.5267 103.584 51.34L100.112 42.38L80.288 42.38L76.816 51.34C76.7413 51.5267 76.592 51.7133 76.368 51.9C76.1813 52.0867 75.92 52.18 75.584 52.18L74.464 52.18ZM81.632 39.02L98.768 39.02L90.2 16.956L81.632 39.02ZM114.918 52.18C114.545 52.18 114.246 52.068 114.022 51.844C113.798 51.62 113.686 51.3213 113.686 50.948L113.686 14.268C113.686 13.8947 113.798 13.596 114.022 13.372C114.246 13.1107 114.545 12.98 114.918 12.98L127.966 12.98C131.998 12.98 135.153 13.932 137.43 15.836C139.707 17.74 140.846 20.5587 140.846 24.292C140.846 27.2413 140.118 29.6307 138.662 31.46C137.206 33.252 135.115 34.4653 132.39 35.1L141.406 50.444C141.518 50.668 141.574 50.8733 141.574 51.06C141.574 51.3587 141.462 51.62 141.238 51.844C141.014 52.068 140.753 52.18 140.454 52.18L139.782 52.18C139.222 52.18 138.793 52.068 138.494 51.844C138.233 51.5827 137.953 51.1907 137.654 50.668L128.75 35.604L117.214 35.604L117.214 50.948C117.214 51.3213 117.083 51.62 116.822 51.844C116.598 52.068 116.299 52.18 115.926 52.18L114.918 52.18ZM127.686 32.244C130.934 32.244 133.342 31.5907 134.91 30.284C136.515 28.94 137.318 26.9427 137.318 24.292C137.318 21.6413 136.515 19.6627 134.91 18.356C133.342 17.012 130.934 16.34 127.686 16.34L117.214 16.34L117.214 32.244L127.686 32.244ZM162.778 52.74C157.925 52.74 154.285 51.3773 151.858 48.652C149.432 45.8893 148.125 42.1933 147.938 37.564C147.901 36.556 147.882 34.9133 147.882 32.636C147.882 30.3213 147.901 28.6413 147.938 27.596C148.125 22.9667 149.432 19.2893 151.858 16.564C154.285 13.8013 157.925 12.42 162.778 12.42C166.101 12.42 168.864 13.036 171.066 14.268C173.269 15.4627 174.893 16.9933 175.938 18.86C177.021 20.6893 177.618 22.5747 177.73 24.516L177.73 24.628C177.73 24.9267 177.618 25.1693 177.394 25.356C177.17 25.5427 176.89 25.636 176.554 25.636L175.434 25.636C174.762 25.636 174.352 25.244 174.202 24.46C173.493 21.2867 172.205 19.0467 170.338 17.74C168.472 16.4333 165.952 15.78 162.778 15.78C159.269 15.78 156.544 16.7693 154.602 18.748C152.661 20.7267 151.616 23.7693 151.466 27.876C151.429 28.884 151.41 30.4333 151.41 32.524C151.41 34.6147 151.429 36.2013 151.466 37.284C151.616 41.3907 152.661 44.4333 154.602 46.412C156.544 48.3907 159.269 49.38 162.778 49.38C165.952 49.38 168.472 48.7267 170.338 47.42C172.205 46.1133 173.493 43.8733 174.202 40.7C174.352 39.916 174.762 39.524 175.434 39.524L176.554 39.524C176.89 39.524 177.17 39.636 177.394 39.86C177.656 40.0467 177.768 40.308 177.73 40.644C177.618 42.5853 177.021 44.4893 175.938 46.356C174.893 48.1853 173.269 49.716 171.066 50.948C168.864 52.1427 166.101 52.74 162.778 52.74ZM195.783 52.18C195.409 52.18 195.111 52.068 194.887 51.844C194.663 51.62 194.551 51.3213 194.551 50.948L194.551 16.34L183.463 16.34C183.089 16.34 182.791 16.228 182.567 16.004C182.343 15.78 182.231 15.4813 182.231 15.108L182.231 14.268C182.231 13.8947 182.343 13.596 182.567 13.372C182.791 13.1107 183.089 12.98 183.463 12.98L209.111 12.98C209.521 12.98 209.839 13.092 210.063 13.316C210.287 13.54 210.399 13.8573 210.399 14.268L210.399 15.108C210.399 15.4813 210.268 15.78 210.007 16.004C209.783 16.228 209.484 16.34 209.111 16.34L198.079 16.34L198.079 50.948C198.079 51.3213 197.948 51.62 197.687 51.844C197.463 52.068 197.164 52.18 196.791 52.18L195.783 52.18Z" fill="rgb(145,121,92)" fill-rule="nonzero" />
		<path id="Vector 22" d="M0 0L0 38.3909C18.1847 38.3909 20.3241 13.3088 0 0Z" fill="rgb(240.125,240.125,240.125)" fill-rule="evenodd" transform="matrix(-0.884033,0.467425,0.533296,0.845928,12.776,15)" />
		<path id="Vector 22" d="M0 38.3909C18.1847 38.3909 20.3241 13.3088 0 0L0 38.3909Z" fill-rule="evenodd" stroke="rgb(145,121,92)" stroke-width="3" transform="matrix(-0.884033,0.467425,0.533296,0.845928,12.776,15)" />
		<path id="Vector 23" d="M0 0L0 36.8361C18.0197 36.8361 20.1397 12.7698 0 0Z" fill="rgb(240.125,240.125,240.125)" fill-rule="evenodd" transform="matrix(-0.971187,0.23832,0.28081,0.959763,29.6627,13.4346)" />
		<path id="Vector 23" d="M0 36.8361C18.0197 36.8361 20.1397 12.7698 0 0L0 36.8361Z" fill-rule="evenodd" stroke="rgb(145,121,92)" stroke-width="3" transform="matrix(-0.971187,0.23832,0.28081,0.959763,29.6627,13.4346)" />
		<path id="Vector 24" d="M0 0L0 38C18.8743 38 21.0949 13.1733 0 0Z" fill="rgb(240.125,240.125,240.125)" fill-rule="evenodd" transform="matrix(-1,0,0,1,47.9987,12)" />
		<path id="Vector 24" d="M0 38C18.8743 38 21.0949 13.1733 0 0L0 38Z" fill-rule="evenodd" stroke="rgb(145,121,92)" stroke-width="3" transform="matrix(-1,0,0,1,47.9987,12)" />
	</g>
</svg>
